<?xml version="1.0" encoding="iso-8859-1"?>
<!-- Generator: Adobe Illustrator 19.0.0, SVG Export Plug-In . SVG Version: 6.00 Build 0)  -->
<svg version="1.1" id="Capa_1" xmlns="http://www.w3.org/2000/svg" xmlns:xlink="http://www.w3.org/1999/xlink" x="0px" y="0px"
	 viewBox="0 0 477.867 477.867" style="enable-background:new 0 0 477.867 477.867;" xml:space="preserve">
<style type="text/css">
	.st0{fill:#95cecb;}
</style>
<g>
	<g>
		<circle class="st0" cx="238.933" cy="238.933" r="85.333"/>
	</g>
</g>
<g>
	<g>
		<path class="st0" d="M460.8,221.867h-17.937C434.429,122.368,355.499,43.438,256,35.004V17.067C256,7.641,248.359,0,238.933,0
			s-17.067,7.641-17.067,17.067v17.937c-99.499,8.434-178.429,87.364-186.863,186.863H17.067C7.641,221.867,0,229.508,0,238.933
			S7.641,256,17.067,256h17.937c8.434,99.499,87.364,178.429,186.863,186.863V460.8c0,9.426,7.641,17.067,17.067,17.067
			S256,470.226,256,460.8v-17.937c99.499-8.434,178.429-87.364,186.863-186.863H460.8c9.426,0,17.067-7.641,17.067-17.067
			S470.226,221.867,460.8,221.867z M238.933,358.4c-65.98,0-119.467-53.487-119.467-119.467s53.487-119.467,119.467-119.467
			S358.4,172.954,358.4,238.933C358.315,304.878,304.878,358.315,238.933,358.4z"/>
	</g>
</g>
<g>
</g>
<g>
</g>
<g>
</g>
<g>
</g>
<g>
</g>
<g>
</g>
<g>
</g>
<g>
</g>
<g>
</g>
<g>
</g>
<g>
</g>
<g>
</g>
<g>
</g>
<g>
</g>
<g>
</g>
</svg>
