<svg id="Layer_1" enable-background="new 0 0 512 512" height="512" viewBox="0 0 512 512" width="512" xmlns="http://www.w3.org/2000/svg"><g><g><path d="m482 146.001h-10.001v-10.001c0-16.542-13.458-30-30-30h-10.002v-.001-10c0-16.542-13.458-30-30-30h-291.994c-16.542 0-30 13.458-30 30v10.001.001h-10.002c-16.542 0-30 13.458-30 30v10.001h-10.001c-16.542 0-30 13.458-30 30v240c0 16.542 13.458 30 30 30h452c16.542 0 30-13.458 30-30v-240c0-16.543-13.458-30.001-30-30.001zm-381.997-40.001v-10.001c0-5.514 4.486-10 10-10h291.994c5.514 0 10 4.486 10 10v10.001.001zm-40.002 30c0-5.514 4.486-10 10-10h371.997c5.514 0 10 4.486 10 10v10.001h-391.997zm431.999 280.001c0 5.514-4.486 10-10 10h-452c-5.514 0-10-4.486-10-10v-240c0-5.514 4.486-10 10-10h452c5.514 0 10 4.486 10 10z"/><path d="m462 226.001c-16.542 0-30-13.458-30-30 0-5.522-4.477-10-10-10h-332c-5.523 0-10 4.478-10 10 0 16.542-13.458 30-30 30-5.523 0-10 4.478-10 10v120c0 5.522 4.477 10 10 10 16.542 0 30 13.458 30 30 0 5.522 4.477 10 10 10h332c5.523 0 10-4.478 10-10 0-16.542 13.458-30 30-30 5.523 0 10-4.478 10-10v-120c0-5.522-4.477-10-10-10zm-76 70c0 33.463-13.513 66.112-37.152 90h-30.552c28.503-19.789 47.205-52.749 47.205-90s-18.702-70.211-47.205-90h30.541c23.983 24.184 37.163 56.039 37.163 90zm-222.836 90c-23.983-24.183-37.164-56.038-37.164-90 0-33.961 13.18-65.816 37.164-90h30.47c-15.324 10.635-27.702 24.982-35.943 41.74-2.437 4.956-.395 10.949 4.561 13.387 4.957 2.436 10.95.395 13.387-4.561 15.186-30.882 45.979-50.066 80.362-50.066 49.351 0 89.5 40.149 89.5 89.5s-40.149 89.5-89.5 89.5c-34.383 0-65.176-19.185-80.362-50.066-2.438-4.956-8.432-6.999-13.387-4.561-4.956 2.438-6.998 8.431-4.561 13.387 8.241 16.759 20.619 31.105 35.943 41.74zm-103.164-38.995v-102.01c19.561-3.987 35.008-19.434 38.996-38.995h37.624c-19.868 25.73-30.62 57.001-30.62 90s10.751 64.271 30.619 90h-37.623c-3.987-19.561-19.434-35.007-38.996-38.995zm392 0c-19.561 3.987-35.008 19.434-38.996 38.995h-37.686c19.682-25.709 30.682-57.518 30.682-90 0-33-10.752-64.27-30.62-90h37.624c3.987 19.562 19.435 35.008 38.996 38.995z"/><path d="m253.56 323.798c-1.781-.001-3.455-.694-4.714-1.954-3.905-3.903-10.236-3.904-14.142 0-3.905 3.905-3.906 10.236 0 14.143 3.201 3.201 7.073 5.483 11.298 6.726v3.289c0 5.522 4.477 10 10 10s10-4.478 10-10v-5.272c2.333-1.234 4.495-2.822 6.415-4.742 5.037-5.037 7.811-11.733 7.811-18.856s-2.774-13.819-7.811-18.856l-18.688-18.688c-1.259-1.259-1.953-2.934-1.953-4.714s.693-3.455 1.953-4.714c1.259-1.26 2.933-1.953 4.714-1.953s3.455.693 4.714 1.953c3.905 3.904 10.237 3.904 14.143 0 3.905-3.905 3.905-10.237 0-14.143-3.259-3.259-7.159-5.495-11.297-6.711v-3.304c0-5.522-4.477-10-10-10s-10 4.478-10 10v5.282c-2.309 1.216-4.476 2.793-6.416 4.732-10.397 10.397-10.397 27.315 0 37.713l18.688 18.688c1.259 1.259 1.953 2.934 1.953 4.714s-.693 3.455-1.953 4.714c-1.261 1.26-2.935 1.953-4.715 1.953z"/><path d="m166.5 296.001c0-5.522-4.477-10-10-10h-.007c-5.523 0-9.996 4.478-9.996 10s4.48 10 10.003 10 10-4.477 10-10z"/></g></g></svg>